#!OML:ASF E:/inclinewalkrobotboard/Project1/Captureday1/Session1/subject1.ASF
:FULLY-SPECIFIED
:DEGREES
88
root 0 0 0 -1.814864101973381 -5.275815206745755 -6.953535970929927
lowerback 11.551752668241063 1.8838458424334226 6.39459127793659
upperback 0.7729721825092001 3.3954329708533013 2.1613362383506427
thorax -5.430759215833164 1.5448075424717356 -1.834951631574973
lowerneck -17.413120743387747 -3.568116962263514 -1.5899220116913035
upperneck 19.440978319369933 -4.54245722091572 0.3892725029243689
head 9.056678194419685 -2.214754181869768 -0.18921243183002712
rclavicle 1.994619175862695E-15 -1.797472405487809E-15
rhumerus -27.992557784847193 -17.9128801008486 -77.6763837737923
rradius 29.615883993594718
rwrist 0.2520808604330558
rhand -19.314335288881942 24.530392460138554
rfingers 7.125020000000017
rthumb 7.004991358813641 -5.387201013457442
lclavicle -1.8335657982696087E-15 -1.4225429147093818E-15
lhumerus -35.55773178622452 -0.15029948519493827 84.63424133699728
lradius 27.300398298006648
lwrist 6.094785616478987
lhand -27.249652396291523 23.916535035531147
lfingers 7.125020000000017
lthumb -0.6532541827766458 53.912870719084744
rfemur 12.174781248907117 8.371029746182971 35.66546489212823
rtibia 26.829505039824284
rfoot -20.51783267414107 -4.959222495802748
rtoes -3.835244622267357
lfemur -26.16285004743314 -4.541442242176618 -11.467153397837281
ltibia 20.27523466830513
lfoot -5.551167222590614 4.495866162950169
ltoes -1.4917656101627443
89
root 0 0 0 -2.0551559153302974 -5.2126007601635145 -6.568611491784657
lowerback 11.615043712925656 1.9105041686833535 5.962392517331591
upperback 0.6523810699481047 3.381173617524677 2.0345214877585738
thorax -5.607052775976026 1.5448083467232978 -1.7263787704895885
lowerneck -17.12120336904537 -3.637301872821587 -1.5248022837928759
upperneck 19.484724730980655 -4.691875478207087 0.5222923619787918
head 9.05929953576518 -2.2619162605315415 -0.1677035652681093
rclavicle 1.0704770486274476E-15 -2.419370804177221E-15
rhumerus -28.47381187122807 -18.952172106802557 -77.2705466625047
rradius 29.103572156459165
rwrist 0.6833028120186286
rhand -19.28979342824533 24.263689785615913
rfingers 7.125020000000017
rthumb 7.029320319406466 -5.663649538497083
lclavicle -2.8271706994790836E-15 -2.3220232903485937E-15
lhumerus -35.846713001828896 0.5825109692627636 84.28526213034085
lradius 26.53727087037133
lwrist 5.633209362781811
lhand -27.15155850699866 24.17186383448252
lfingers 7.125020000000018
lthumb -0.5587739586818978 54.17544234374439
rfemur 11.847206321844272 7.502915056811787 34.704693952939714
rtibia 31.208295057918537
rfoot -17.59204108652697 -3.5137223160822453
rtoes -5.19712557084484
lfemur -25.57670879248956 -4.192069904898182 -12.328363985056985
ltibia 21.23507140993701
lfoot -5.336289376378733 3.651490465232365
ltoes -1.2247186844675433
90
root 0 0 0 -2.179797479846633 -5.18906939371273 -5.208814409321146
lowerback 11.139143064505369 2.0599605645902903 4.659679986874074
upperback 0.43516581611755223 3.391082526368903 1.5385748571529336
thorax -5.59106665580656 1.574878979197 -1.5097644578478877
lowerneck -16.34711209772075 -3.6142475143912867 -1.323642397443325
upperneck 19.71829781832505 -4.7802480738243585 0.8275894671036989
head 9.053052057660306 -2.254685415096465 -0.09655750982441369
rclavicle 9.189404292855786E-16 -2.0694515397612152E-15
rhumerus -29.40490775910241 -20.67952934082637 -76.60529943640171
rradius 28.274852473583618
rwrist 1.3112095363316767
rhand -19.214036204096853 23.75086024338195
rfingers 7.125020000000019
rthumb 7.102096696098375 -6.180269675603199
lclavicle -2.8831943493446686E-15 -2.3270667676880865E-15
lhumerus -36.17088538903113 1.8982977804607348 83.6794851671302
lradius 25.345501299037558
lwrist 4.897775822582185
lhand -26.882503655783196 24.515842501586405
lfingers 7.12502000000002
lthumb -0.2995783496646576 54.526382005326965
rfemur 0.5790038935415449 3.9840176350817744 25.59925967606317
rtibia 42.10767823300239
rfoot -1.530940968354701 -0.6333719680787531
rtoes 0.12074613739153062
lfemur -22.261843581231453 -2.949628584740482 -17.500538377666064
ltibia 25.554140813902976
lfoot -4.528764470496014 -0.09883052328161934
ltoes 4.741455110022137
91
root 0 0 0 -2.636843533085183 -5.149335165716472 -2.81465553579277
lowerback 10.747897007231364 2.08937984851087 2.679358716548082
upperback 0.3961648399329279 3.156570735107217 0.9565797310451861
thorax -5.458743588795278 1.5033471113718326 -0.970908567317177
lowerneck -16.28937282005039 -3.535207720137904 -1.5338067230955592
upperneck 20.841218269351124 -4.675418419171466 0.9508643349530548
head 9.41076548694054 -2.2003132320149286 -0.017086477659031263
rclavicle 1.1788625837285179E-15 -2.5868969169781843E-15
rhumerus -30.056408541748276 -21.71413083118143 -76.2927169975613
rradius 27.61414124308694
rwrist 1.8319945621899043
rhand -19.092818361422616 23.401909133391687
rfingers 7.125020000000021
rthumb 7.218250872751402 -6.522848802956265
lclavicle -2.824064710355058E-15 -3.1087257824301936E-15
lhumerus -36.13142293512659 2.441810580082077 83.37464177437616
lradius 24.875043331343697
lwrist 4.639788688850903
lhand -26.798060560271367 24.382810710567238
lfingers 7.125020000000022
lthumb -0.21820564369780993 54.39774487514782
rfemur -6.436766851932441 3.2750580047862 27.749761598478884
rtibia 68.77362436568845
rfoot 12.769503791228214 -1.608763855077423
rtoes 16.018552593718294
lfemur -19.602141902355594 -2.162133029054149 -20.87350677695053
ltibia 28.37622544943006
lfoot -4.291407088894784 -2.266671085271834
ltoes 8.22045840871263
92
root 0 0 0 -4.08600888812594 -4.5078524977975905 -0.0791782460261583
lowerback 10.727179286811133 1.5544682363431326 -0.12634377634896599
upperback 0.49340896699239345 2.0785004497075583 0.5636329460447544
thorax -5.466154942812928 1.035238835335861 0.35307396405025804
lowerneck -16.03578116560988 -3.1455721654733546 -1.624558811020627
upperneck 21.566974026210787 -4.1154590843777585 0.8158093895977626
head 9.571636633425285 -1.9570301752313655 0.01531353242869038
rclavicle 1.2754864706264443E-15 -1.2408051663990417E-15
rhumerus -30.77190799358635 -22.496023615385322 -76.18785908846971
rradius 26.942928974145836
rwrist 2.2957027384233326
rhand -19.011048556513284 23.14853924639267
rfingers 7.125020000000021
rthumb 7.297053259654055 -6.7719817761669
lclavicle -2.3860069182019825E-15 -1.5017346659627412E-15
lhumerus -35.739871606156804 1.77306448182573 83.47605218377635
lradius 25.415033825568486
lwrist 5.1900186778987685
lhand -27.062965413795308 24.239405196617057
lfingers 7.125020000000022
lthumb -0.47104582514918114 54.25077100306857
rfemur -8.027567434500776 2.7495155546821013 28.04680086065451
rtibia 73.46225530393536
rfoot 12.79606095799927 -2.5426483496794745
rtoes 17.791406000092955
lfemur -16.943460139703014 -2.4229720997832076 -21.865017349307763
ltibia 28.62012971191056
lfoot -5.815239166892047 -1.8609355577120987
ltoes 7.373003194957121
